<svg xmlns="http://www.w3.org/2000/svg" width="110" height="35" fill="none" viewBox="0 0 110 35">
  <path stroke="#000" stroke-linecap="round" stroke-width="2" d="M1 29.87c8.786.583 17.076.778 25.811-.396 7.378-.992 14.858-1.901 22.156-3.392 7.504-1.533 12.074-6.285 13.038-13.875.46-3.63 1.988-9.556-2.51-11.056-2.33-.776-5.687 1.631-7.687 2.731-5.753 3.164-.327 10.445 3.37 12.598 9.833 5.725 20.821 7.977 31.978 9.338 3.552.433 6.784.88 10.373.88 1.628 0 8.315.842 9.073-.22.153-.214-5.386-4.843-6.1-6.034-.637-1.061 5.456 1.352 6.254 1.894 1.843 1.25 2.353 2.235.881 4.052-1.798 2.221-3.122 4.62-5.153 6.651"/>
</svg>
