<svg xmlns="http://www.w3.org/2000/svg" width="280" height="280" fill="none" viewBox="0 0 280 280">
  <path fill="#fff" fill-rule="evenodd" d="M227.854 272H251c11.598 0 21-9.402 21-21v-23.146h8V251c0 16.016-12.984 29-29 29h-23.146v-8ZM8 227.854V251c0 11.598 9.402 21 21 21h23.146v8H29c-16.016 0-29-12.984-29-29v-23.146h8ZM52.146 8H29C17.402 8 8 17.402 8 29v23.146H0V29C0 12.984 12.984 0 29 0h23.146v8Zm175.708 0H251c11.598 0 21 9.402 21 21v23.146h8V29c0-16.016-12.984-29-29-29h-23.146v8Z" clip-rule="evenodd"/>
</svg>
