<svg xmlns="http://www.w3.org/2000/svg" width="47" height="41" fill="none" viewBox="0 0 47 41">
  <path fill="#000" d="M23 0C15.266 0 9 6.266 9 14s6.266 14 14 14 14-6.266 14-14S30.734 0 23 0Zm8.129 15.58a.68.68 0 0 1-.677.678h-5.194v5.194a.68.68 0 0 1-.677.677h-3.162a.68.68 0 0 1-.677-.677v-5.194h-5.194a.68.68 0 0 1-.677-.677v-3.162a.68.68 0 0 1 .677-.677h5.194V6.548a.68.68 0 0 1 .677-.677h3.162a.68.68 0 0 1 .677.677v5.194h5.194a.68.68 0 0 1 .677.677v3.162ZM5.307 35.677H3.843a.992.992 0 0 0-.084-.33.745.745 0 0 0-.181-.255.757.757 0 0 0-.278-.166 1.078 1.078 0 0 0-.371-.06c-.243 0-.448.06-.616.177a1.09 1.09 0 0 0-.379.507c-.085.22-.127.483-.127.791 0 .326.043.598.13.818.088.218.215.383.382.494.166.109.366.163.6.163.133 0 .252-.016.358-.05a.841.841 0 0 0 .275-.147.767.767 0 0 0 .19-.231.928.928 0 0 0 .1-.31l1.465.011c-.017.225-.08.455-.19.688a2.236 2.236 0 0 1-1.204 1.117 2.725 2.725 0 0 1-1.026.179c-.488 0-.926-.105-1.314-.315a2.277 2.277 0 0 1-.916-.924c-.223-.407-.335-.904-.335-1.493 0-.592.114-1.09.343-1.495.228-.407.536-.714.924-.922a2.68 2.68 0 0 1 1.298-.314c.336 0 .645.046.927.138.282.091.53.226.743.402.212.175.384.39.514.647.13.256.208.55.236.88ZM5.962 39v-5.317h1.443v4.154h2.15V39H5.962Zm5.62-5.317V39H10.14v-5.317h1.443Zm5.648 1.994h-1.464a.993.993 0 0 0-.083-.33.745.745 0 0 0-.182-.255.757.757 0 0 0-.277-.166 1.08 1.08 0 0 0-.372-.06c-.242 0-.447.06-.615.177a1.089 1.089 0 0 0-.38.507c-.084.22-.126.483-.126.791 0 .326.043.598.13.818.088.218.215.383.381.494.166.109.366.163.6.163.133 0 .253-.016.358-.05a.84.84 0 0 0 .275-.147.766.766 0 0 0 .19-.231.928.928 0 0 0 .101-.31l1.464.011c-.017.225-.08.455-.189.688a2.239 2.239 0 0 1-1.205 1.117 2.72 2.72 0 0 1-1.025.179c-.488 0-.926-.105-1.314-.315a2.276 2.276 0 0 1-.916-.924c-.224-.407-.335-.904-.335-1.493 0-.592.114-1.09.342-1.495.229-.407.537-.714.925-.922.387-.21.82-.314 1.298-.314.335 0 .645.046.927.138.282.091.53.226.742.402.213.175.384.39.514.647.13.256.209.55.236.88ZM17.886 39v-5.317h1.444v2.15h.073L21 33.683h1.682l-1.796 2.368L22.725 39h-1.724l-1.194-1.994-.478.623V39h-1.444Zm6.683 0v-5.317h1.444v2.077h1.91v-2.077h1.444V39h-1.443v-2.077h-1.911V39h-1.444Zm5.484 0v-5.317h3.832v1.163h-2.389v.914h2.192v1.163h-2.192v.914h2.379V39h-3.822Zm4.548 0v-5.317h2.295c.395 0 .74.072 1.036.215.296.144.526.35.69.62.165.27.247.594.247.972 0 .38-.085.702-.254.963a1.563 1.563 0 0 1-.709.592 2.62 2.62 0 0 1-1.062.2h-1.37v-1.122h1.08c.169 0 .314-.02.433-.062a.549.549 0 0 0 .278-.205.622.622 0 0 0 .098-.366.64.64 0 0 0-.098-.372.552.552 0 0 0-.278-.212 1.192 1.192 0 0 0-.434-.07h-.508V39H34.6Zm3.116-2.44L39.045 39h-1.568l-1.298-2.44h1.537ZM39.484 39v-5.317h3.832v1.163h-2.389v.914h2.191v1.163h-2.19v.914h2.377V39h-3.821Zm6.23-5.317-.135 3.655h-1.184l-.135-3.655h1.454Zm-.727 5.4c-.2 0-.373-.07-.517-.21a.695.695 0 0 1-.21-.517.677.677 0 0 1 .21-.506.714.714 0 0 1 .517-.21c.19 0 .358.07.504.21a.683.683 0 0 1 .117.875.783.783 0 0 1-.265.262.69.69 0 0 1-.356.096Z"/>
</svg>
