<svg xmlns="http://www.w3.org/2000/svg" width="57" height="61" fill="none" viewBox="0 0 57 61">
  <path fill="#035F5F" fill-rule="evenodd" d="M10.726.001a.984.984 0 0 0-.611 1.715.983.983 0 0 0 .71.253h1.754c0 .702.036 1.299.047 1.968H0v.984c0 7.107 2.697 12.327 6.368 16.028 3.625 3.654 8.155 5.86 12.04 7.265 1.414 1.832 2.83 2.94 3.78 3.808.982.895 1.398 1.371 1.398 2.414v4.722h1.966V35.42h5.896v3.738h1.966v-4.722c0-1.035.428-1.517 1.435-2.42.963-.866 2.382-1.964 3.809-3.757 3.911-1.402 8.455-3.624 12.068-7.311C54.356 17.242 57 12.024 57 4.92v-.984H44.655c.011-.667.045-1.268.045-1.968h2.557a.982.982 0 0 0 .983-.984.984.984 0 0 0-.983-.984h-36.43a.983.983 0 0 0-.101 0Zm3.819 1.968h28.19c-.01 14.915-2.786 21.403-5.44 24.862-1.33 1.732-2.645 2.723-3.753 3.719a5.898 5.898 0 0 0-1.815 2.902h-6.45a5.875 5.875 0 0 0-1.77-2.882c-1.082-.988-2.362-1.972-3.657-3.694-2.593-3.443-5.305-9.927-5.305-24.907ZM2.155 5.904h10.517c.023.663.041 1.34.078 1.968H3.931v.984c0 4.368 1.718 7.896 4.362 10.927.57.655 1.52 1.192 2.171 1.814-.906-.681-1.886-1.212-2.702-2.035-3.174-3.2-5.348-7.635-5.608-13.658Zm42.448 0H54.85c-.256 6.027-2.396 10.465-5.527 13.662-.842.858-1.856 1.419-2.795 2.121.682-.653 1.682-1.22 2.276-1.912 2.598-3.032 4.265-6.557 4.265-10.92v-.983h-8.546c.04-.63.057-1.303.08-1.968ZM6.09 9.84h6.813c.519 6.462 1.65 10.952 3.046 14.124-2.388-1.804-4.526-3.585-6.177-5.476C7.568 15.963 6.33 13.195 6.09 9.84Zm38.277 0h6.549c-.236 3.363-1.439 6.131-3.601 8.654-1.618 1.889-3.72 3.66-6.083 5.458 1.43-3.174 2.598-7.662 3.135-14.112ZM20.078 39.355c-.77 0-1.382.435-1.77.939a2.87 2.87 0 0 0-.618 1.767v3.197h-.983a2.966 2.966 0 0 0-2.948 2.952V61H43.24V48.21a2.966 2.966 0 0 0-2.948-2.952h-.983v-3.197c0-.66-.23-1.265-.617-1.767-.389-.504-1.002-.939-1.769-.939H20.078Zm0 1.964h16.844c.008 0 .099.024.218.177.12.154.205.41.205.565v3.197h-17.69v-3.197c0-.156.085-.411.205-.565.117-.153.21-.177.216-.177h.002Zm-3.371 5.907h23.586a.96.96 0 0 1 .983.984v10.822H15.724V48.21a.96.96 0 0 1 .983-.984Zm2.239 1.964v.004a1.305 1.305 0 0 0-.641.15 1.034 1.034 0 0 0-.615.971v3.656c0 .622.393.854.609.969.218.114.417.157.647.157H38.01c.226 0 .423-.04.643-.154a1.034 1.034 0 0 0 .615-.972v-3.656c0-.621-.393-.854-.611-.968a1.311 1.311 0 0 0-.645-.157H18.946Zm.71 1.971h17.648v1.972H19.655v-1.972Z" clip-rule="evenodd"/>
</svg>
