<svg xmlns="http://www.w3.org/2000/svg" width="47" height="58" fill="none" viewBox="0 0 47 58">
  <path fill="#000" d="M37.31 37.91a76.672 76.672 0 0 1-.029-1.415l-.04-3.395c-.012-1.086-.017-2.156-.025-3.222-.024-3.884-.053-7.576-.309-11.65-7.004-.042-20.71-.095-27.727-.114a355.438 355.438 0 0 0-.171 6.02c-.067 3.082-.131 5.994-.303 8.54a97.824 97.824 0 0 0-.26 6.757l-.002.774c-.006 2.117-.013 4.306.572 6.238.927 3.06 4.343 4.347 7.138 4.233.807-.03 2.881-.012 5.502.013 4.09.038 9.181.084 11.02-.052 4.556-.34 4.78-6.747 4.634-12.727Zm-18.563 3.42a1.368 1.368 0 0 1-1.367 1.336h-.034a1.365 1.365 0 0 1-1.334-1.401c.135-5.592-.024-11.337-.219-16.715a1.368 1.368 0 1 1 2.736-.1c.194 5.42.356 11.216.218 16.88Zm11.642 0a1.368 1.368 0 0 1-1.367 1.336h-.035a1.365 1.365 0 0 1-1.334-1.401c.135-5.584-.024-11.335-.217-16.715a1.37 1.37 0 0 1 1.32-1.417 1.35 1.35 0 0 1 1.417 1.32c.192 5.421.352 11.22.216 16.877Z"/>
  <path fill="#000" d="M44.766 11.876c-1.338-.02-5.855-.045-11.5-.071.005-.62.023-1.226.048-1.81.147-3.266.284-6.352-3.878-8.65-3.239-1.79-9.772-1.794-12.943-.008-3.856 2.174-3.71 5.628-3.582 8.676.023.563.037 1.136.038 1.707-5.459-.02-9.866-.031-11.39-.031C.692 11.695 0 12.33 0 13.175a1.486 1.486 0 0 0 1.486 1.486c.01.011.047 0 .074 0l1.753.003c-.088 2.41-.156 4.822-.205 7.234-.08 3.697-.156 7.189-.36 10.206-.224 3.275-.325 5.94-.322 8.388l-.001.924c-.009 2.783-.018 5.661.82 8.425 1.58 5.214 7.15 7.396 11.602 7.234.906-.035 3.508-.01 6.524.017 2.423.022 5.135.047 7.554.047 2.578 0 4.824-.028 6.037-.119 8.804-.652 8.517-12.228 8.362-18.448-.014-.605-.03-1.166-.032-1.667l-.05-4.117a865.557 865.557 0 0 1-.03-3.887c-.029-4.682-.066-9.141-.37-14.073.857.006 1.502.012 1.883.018h.023a1.485 1.485 0 0 0 .018-2.97Zm-26.814-7.95c2.269-1.277 7.717-1.267 10.047.022 2.547 1.407 2.48 2.913 2.347 5.915a53.113 53.113 0 0 0-.052 1.928c-4.633-.02-9.736-.041-14.373-.058 0-.627-.016-1.243-.042-1.842-.129-3.08-.095-4.743 2.073-5.964ZM40.238 28.92c.008 1.29.017 2.585.03 3.9l.049 4.112c.004.515.02 1.092.034 1.713.18 7.242-.092 15.003-5.612 15.411-2.226.165-8.39.107-13.344.063-3.175-.032-5.688-.052-6.664-.017-3.385.139-7.523-1.42-8.645-5.126-.709-2.337-.7-4.99-.692-7.552l.001-.938c-.003-2.377.097-4.978.314-8.181.21-3.086.286-6.612.368-10.343.054-2.43.113-4.893.207-7.291 8.503.024 25.097.089 33.578.138.31 4.936.348 9.407.376 14.111Z"/>
</svg>
