<svg xmlns="http://www.w3.org/2000/svg" width="286" height="41" fill="none" viewBox="0 0 286 41">
  <path fill="#FFCF50" d="M281.562 30a.995.995 0 0 1-.465-.116L276 27.215l-5.097 2.67a1.004 1.004 0 0 1-1.39-.507.979.979 0 0 1-.06-.542l.973-5.654-4.125-4.004a1 1 0 0 1-.252-1.02 1.002 1.002 0 0 1 .806-.679l5.7-.824 2.549-5.144a1.041 1.041 0 0 1 1.793 0l2.548 5.144 5.7.824a1.005 1.005 0 0 1 .806.678 1 1 0 0 1-.252 1.02l-4.125 4.005.974 5.654a.988.988 0 0 1-.563 1.071 1.01 1.01 0 0 1-.423.093Zm-266 0a.995.995 0 0 1-.465-.116L10 27.215l-5.097 2.67a1.004 1.004 0 0 1-1.39-.507.992.992 0 0 1-.06-.542l.973-5.654L.3 19.178a.995.995 0 0 1 .554-1.699l5.7-.824 2.549-5.144A1.038 1.038 0 0 1 10 11a1.043 1.043 0 0 1 .896.51l2.548 5.145 5.7.824a1.002 1.002 0 0 1 .806.678.993.993 0 0 1-.252 1.02l-4.125 4.005.974 5.654a.992.992 0 0 1-.563 1.071 1.008 1.008 0 0 1-.423.093Z"/>
  <path fill="#4F5C32" fill-rule="evenodd" d="M20 0h250v.148L243 20.5l27 20.352V41H20v-.148L47 20.5 20 .148V0Z" clip-rule="evenodd"/>
  <path fill="#fff" d="M63.535 11.546h4.134l2.736 7.517h.187l5.208-7.517h4.133L71.7 22.83 70.67 29h-3.665l1.031-6.17-4.5-11.284Zm18.638 17.71c-1.336 0-2.44-.284-3.316-.853-.875-.573-1.491-1.369-1.85-2.386-.352-1.023-.417-2.213-.195-3.571.216-1.34.665-2.514 1.346-3.52a7.141 7.141 0 0 1 2.6-2.344c1.05-.562 2.236-.843 3.554-.843 1.33 0 2.432.287 3.307.86.875.569 1.491 1.364 1.849 2.387.358 1.023.426 2.213.205 3.57-.222 1.336-.677 2.506-1.364 3.512a7.308 7.308 0 0 1-2.6 2.352c-1.045.557-2.224.836-3.536.836Zm.358-2.813c.613 0 1.156-.173 1.627-.52.478-.352.873-.83 1.185-1.431.318-.608.54-1.296.665-2.063.125-.756.133-1.426.025-2.011-.108-.591-.335-1.057-.681-1.398-.341-.341-.81-.511-1.407-.511-.613 0-1.159.176-1.636.528-.477.347-.872.824-1.185 1.432a6.918 6.918 0 0 0-.656 2.07c-.12.75-.128 1.421-.026 2.012.103.585.327 1.048.674 1.39.346.335.818.502 1.415.502Zm17.752-3.017 1.253-7.517h3.631L102.985 29h-3.486l.392-2.378h-.136a4.672 4.672 0 0 1-1.764 1.85c-.773.465-1.65.698-2.634.698-.875 0-1.613-.198-2.216-.596-.596-.398-1.02-.963-1.27-1.696s-.292-1.611-.127-2.634l1.397-8.335h3.631l-1.278 7.688c-.12.772-.012 1.383.323 1.832.336.449.847.673 1.535.673.437 0 .86-.1 1.27-.298a3.011 3.011 0 0 0 1.073-.903c.301-.398.497-.89.588-1.475ZM117.785 29h-6.273l2.898-17.454h6.153c1.756 0 3.213.357 4.372 1.073 1.165.716 1.986 1.742 2.463 3.077.478 1.33.563 2.918.256 4.764-.295 1.784-.883 3.316-1.764 4.594a8.822 8.822 0 0 1-3.384 2.932c-1.375.676-2.948 1.014-4.721 1.014Zm-2.054-3.162h2.267c1.096 0 2.057-.204 2.881-.614.829-.409 1.508-1.04 2.036-1.892.535-.852.912-1.943 1.134-3.272.21-1.262.196-2.284-.043-3.069-.233-.79-.684-1.366-1.355-1.73-.67-.369-1.551-.554-2.642-.554h-2.429l-1.849 11.131ZM128.905 29l2.182-13.09h3.63L132.536 29h-3.631Zm4.372-14.796c-.54 0-.986-.178-1.338-.536a1.516 1.516 0 0 1-.426-1.296c.062-.511.307-.943.733-1.295a2.191 2.191 0 0 1 1.449-.537c.539 0 .98.179 1.321.537.341.352.483.784.426 1.295-.057.5-.299.932-.725 1.296-.42.358-.9.537-1.44.537Zm6.974 15.01c-1 0-1.861-.257-2.583-.768-.716-.517-1.227-1.276-1.534-2.276-.301-1.005-.329-2.238-.085-3.698.25-1.5.699-2.748 1.347-3.742.647-1 1.414-1.747 2.301-2.241.886-.5 1.809-.75 2.77-.75.727 0 1.315.125 1.764.375.454.244.804.55 1.048.92.244.364.415.722.511 1.074h.111l1.1-6.563h3.622L147.725 29h-3.579l.349-2.097h-.153a5.703 5.703 0 0 1-.904 1.083 4.637 4.637 0 0 1-1.346.878c-.523.233-1.137.35-1.841.35Zm1.602-2.89c.58 0 1.102-.16 1.568-.477.466-.324.858-.776 1.176-1.356.318-.58.54-1.258.665-2.037.131-.778.134-1.454.009-2.028-.125-.574-.37-1.017-.733-1.33-.358-.312-.833-.468-1.424-.468-.596 0-1.125.162-1.585.486-.454.323-.832.772-1.133 1.346-.296.574-.506 1.239-.631 1.994-.125.762-.134 1.435-.026 2.02.108.58.338 1.035.691 1.364.352.324.826.486 1.423.486Zm28.006-9.137a3.511 3.511 0 0 0-.29-1.099 2.323 2.323 0 0 0-.588-.818 2.52 2.52 0 0 0-.912-.52 3.937 3.937 0 0 0-1.244-.179c-.892 0-1.728.222-2.506.665-.773.443-1.432 1.088-1.977 1.934-.546.841-.918 1.87-1.117 3.086-.204 1.216-.204 2.25 0 3.102.21.852.605 1.503 1.185 1.952.585.443 1.338.664 2.258.664.836 0 1.586-.147 2.25-.443a4.202 4.202 0 0 0 1.628-1.27c.426-.545.699-1.19.818-1.934l.733.11h-4.491l.46-2.778h7.304l-.375 2.199c-.244 1.534-.781 2.852-1.611 3.954a8.297 8.297 0 0 1-3.102 2.54c-1.233.591-2.585.887-4.057.887-1.636 0-3.014-.361-4.133-1.083-1.114-.727-1.907-1.758-2.378-3.093-.466-1.341-.549-2.932-.247-4.773.233-1.415.647-2.676 1.244-3.784.602-1.114 1.338-2.057 2.207-2.83a9.338 9.338 0 0 1 2.89-1.764 9.258 9.258 0 0 1 3.315-.605c.989 0 1.883.145 2.685.434.806.285 1.497.688 2.071 1.21a5.07 5.07 0 0 1 1.312 1.867c.301.716.44 1.506.418 2.37h-3.75ZM174.514 29l2.182-13.09h3.52l-.384 2.283h.137c.375-.812.878-1.426 1.508-1.84a3.658 3.658 0 0 1 2.054-.631c.182 0 .372.011.571.034.205.017.387.045.546.085l-.546 3.23a3.222 3.222 0 0 0-.682-.136 6.07 6.07 0 0 0-.826-.06c-.529 0-1.02.116-1.475.35a3.272 3.272 0 0 0-1.15.954 3.29 3.29 0 0 0-.605 1.415L178.145 29h-3.631Zm15.143.256c-1.341 0-2.452-.273-3.332-.819-.881-.55-1.5-1.329-1.858-2.335-.353-1.011-.412-2.207-.179-3.588.227-1.346.684-2.528 1.372-3.545a7.396 7.396 0 0 1 2.608-2.378c1.045-.568 2.21-.852 3.494-.852.864 0 1.645.139 2.344.417a4.25 4.25 0 0 1 1.756 1.245c.465.55.784 1.241.954 2.07.176.83.173 1.802-.008 2.915l-.162.998H185.6l.35-2.25h7.636c.085-.523.051-.986-.102-1.39a1.886 1.886 0 0 0-.767-.946c-.358-.233-.799-.35-1.321-.35-.534 0-1.034.131-1.5.393a3.738 3.738 0 0 0-1.177 1.031c-.312.42-.514.878-.605 1.372l-.4 2.233c-.114.688-.091 1.259.068 1.713.165.455.449.796.852 1.023.404.222.915.332 1.534.332a3.66 3.66 0 0 0 1.134-.17c.358-.114.676-.281.954-.503a2.68 2.68 0 0 0 .682-.844l3.316.222a5.732 5.732 0 0 1-1.398 2.114 6.657 6.657 0 0 1-2.259 1.397c-.875.33-1.855.495-2.94.495Zm12.134-.009c-.829 0-1.548-.145-2.156-.434a2.815 2.815 0 0 1-1.33-1.313c-.284-.58-.355-1.298-.213-2.156.125-.728.361-1.335.708-1.824a4.213 4.213 0 0 1 1.287-1.193 6.388 6.388 0 0 1 1.679-.69c.619-.16 1.258-.268 1.917-.325a38.384 38.384 0 0 0 1.858-.23c.483-.073.844-.179 1.083-.315a.888.888 0 0 0 .434-.63v-.052c.085-.534-.014-.949-.298-1.244-.278-.301-.724-.452-1.338-.452-.648 0-1.199.142-1.654.426-.448.284-.769.645-.963 1.083l-3.306-.273a5.501 5.501 0 0 1 1.338-2.063 6.102 6.102 0 0 1 2.173-1.346c.847-.318 1.795-.477 2.847-.477.727 0 1.406.085 2.036.255.637.17 1.185.435 1.645.793.466.358.801.818 1.006 1.38.21.557.253 1.225.128 2.003L209.197 29h-3.443l.307-1.815h-.102c-.279.409-.62.77-1.023 1.082a4.803 4.803 0 0 1-1.389.724 5.65 5.65 0 0 1-1.756.256Zm1.458-2.506c.528 0 1.014-.105 1.457-.315a3.122 3.122 0 0 0 1.108-.87 2.64 2.64 0 0 0 .562-1.235l.222-1.39c-.114.075-.278.14-.494.197-.211.057-.441.11-.691.162-.244.045-.491.088-.741.128-.25.034-.475.068-.673.102-.438.062-.83.162-1.177.298a2.253 2.253 0 0 0-.843.554c-.216.227-.35.512-.401.852-.079.495.037.873.35 1.134.318.256.758.383 1.321.383Zm17.91-10.832-.452 2.727h-7.892l.461-2.727h7.883Zm-5.582-3.136h3.63l-2.028 12.204c-.057.335-.048.597.026.784.073.182.196.31.366.384.176.074.386.11.631.11.17 0 .343-.014.52-.042l.4-.077.137 2.702c-.205.063-.481.13-.827.205a7.075 7.075 0 0 1-1.21.136c-.887.034-1.637-.082-2.25-.35-.614-.272-1.054-.69-1.321-1.252-.267-.563-.324-1.27-.171-2.123l2.097-12.681Zm12.984-1.227-2.352 12.221h-3.102l1.679-12.221h3.775Zm-4.594 17.676c-.574 0-1.045-.2-1.414-.597-.364-.398-.529-.88-.495-1.449.04-.562.276-1.037.708-1.423.437-.392.94-.588 1.508-.588.546 0 1.006.196 1.381.588.375.392.54.866.494 1.423a2.05 2.05 0 0 1-.366 1.031 2.458 2.458 0 0 1-.801.742 2.045 2.045 0 0 1-1.015.273Z"/>
</svg>
