<svg xmlns="http://www.w3.org/2000/svg" width="58" height="54" fill="none" viewBox="0 0 58 54">
  <path fill="#0D87D3" d="m28.733 7.543 5.029 7.901-5.747 3.951 4.67 1.078 10.056 2.155 2.155-9.698 1.437-5.028-6.465 3.95L32.684 0h-7.901l-9.339 15.444 6.106 3.592 7.183-11.494Zm28.734 31.965-9.698-15.444-6.106 3.592 7.184 11.852h-9.339v-7.183L28.733 43.1l10.775 10.775v-7.183h13.29l4.669-7.184Zm-48.847 0 5.028-8.26 6.106 3.95-3.232-15.085-10.057 2.515-4.67 1.077 5.748 3.592L0 39.508l4.67 7.184h20.472v-7.184H8.62Z"/>
</svg>
