<svg xmlns="http://www.w3.org/2000/svg" width="68" height="39" fill="none" viewBox="0 0 68 39">
  <path fill="#9F592C" d="M4.322 32.24H.56v1.683h3.762l-.031-.439c-.01-.136-.021-.26-.021-.407 0-.146.01-.282.02-.429l.032-.407Zm7.66-4.942a5.796 5.796 0 0 0-5.79 5.79 5.787 5.787 0 0 0 5.79 5.778c3.187 0 5.779-2.602 5.779-5.779.01-3.197-2.592-5.789-5.78-5.789Zm0 9.102a3.314 3.314 0 0 1 0-6.625 3.314 3.314 0 0 1 3.313 3.312 3.3 3.3 0 0 1-3.313 3.313Zm8.788-16.804V6.555H8.67a2.08 2.08 0 0 0-1.955 1.369L2.148 19.837H20.52c.146 0 .25-.115.25-.24Z"/>
  <path fill="#9F592C" d="M26.508 6.555h-3.595v13.041a2.39 2.39 0 0 1-2.393 2.383H1.668v8.339h2.895c1.128-3.02 4.023-5.173 7.43-5.173 3.396 0 6.3 2.153 7.43 5.173h7.095V6.555h-.01ZM43.604 32.24H19.63l.021.24a5.54 5.54 0 0 1 0 1.191l-.02.24h23.972l-.021-.448a4.816 4.816 0 0 1-.021-.387c0-.136.01-.272.02-.408l.022-.428Zm7.67-4.943a5.796 5.796 0 0 0-5.79 5.79c0 3.187 2.603 5.778 5.79 5.778a5.784 5.784 0 0 0 0-11.568Zm0 9.102a3.314 3.314 0 0 1 0-6.625 3.314 3.314 0 0 1 0 6.625ZM46.07 17.391l-.283.251a.651.651 0 0 1-.428.157l-3.208-.188a.598.598 0 0 1-.47-.282.602.602 0 0 1-.032-.565l2.059-4.357-1.714.648a.906.906 0 0 1-.293.052.9.9 0 0 1-.418-.115.78.78 0 0 1-.386-.533l-.272-1.369-1.975 3.25c-.21.355-.22.794-.032 1.16l2.519 4.89c.167.314.502.523.867.534l3.271.177c.199.01.366.105.48.272l.252.376 2.675-2.121-2.257-2.028-.356-.209Z"/>
  <path fill="#9F592C" d="M44.586 10.808h.02l.554-.22-.062-.344-.032-.147a.62.62 0 0 1 .126-.49l2.163-2.54a.616.616 0 0 1 .491-.21h.01a.62.62 0 0 1 .46.262l2.205 3.219.22-1.62a.781.781 0 0 1 .365-.575.782.782 0 0 1 .659-.104l1.41.47-1.85-3.114a1.247 1.247 0 0 0-1.023-.585l-5.497-.042c-.355 0-.7.209-.878.512L42.234 8.1a.584.584 0 0 1-.449.293l-.46.042.627 3.365 2.634-.993Z"/>
  <path fill="#9F592C" d="M54.983 11.278a.598.598 0 0 1-.041-.533l.167-.418-3.25-1.024-.418 3 .042.428.397.073a.605.605 0 0 1 .376.355l1.338 3.584a.641.641 0 0 1-.074.565.558.558 0 0 1-.48.25l-4.776.105 1.505 1.358a.826.826 0 0 1 .272.659c0 .115-.042.23-.126.387l-.386.668 3.678-.167c.209-.031.606-.25.836-.637l2.675-4.828c.146-.314.126-.7-.052-.993l-1.682-2.832Z"/>
  <path fill="#9F592C" d="M66.03.974a.33.33 0 0 0-.335-.334H28.984a.33.33 0 0 0-.335.334v29.354h15.195c1.128-3.02 4.023-5.172 7.43-5.172 3.406 0 6.301 2.152 7.43 5.172h7.325V.974Zm-7.326 15.038-2.832 5.12c-.533.889-1.453 1.484-2.31 1.526l-5.83.261-1.579 1.254a1.32 1.32 0 0 1-.815.272c-.199 0-.387-.042-.575-.136a1.292 1.292 0 0 1-.752-1.15l-2.414-.135a2.806 2.806 0 0 1-2.32-1.484l-2.665-5.173c-.47-.94-.428-2.006.115-2.884l2.728-4.493-.293-1.547a1.328 1.328 0 0 1 1.881-1.432l1.233-2.069a2.831 2.831 0 0 1 2.393-1.369l5.81.042a2.992 2.992 0 0 1 2.508 1.453l2.582 4.336 1.442.45c.501.167.825.574.909 1.076.063.491-.146.972-.544 1.264l1.234 2.07a2.75 2.75 0 0 1 .094 2.748Zm.24 16.229.01.23c.01.198.021.397.021.606 0 .209-.01.397-.02.606l-.011.23h8.496V32.23h-8.496v.01Z"/>
</svg>
