<svg xmlns="http://www.w3.org/2000/svg" width="38" height="60" fill="none" viewBox="0 0 38 60">
  <path fill="#4F5C32" d="M32.587 31.25H5.014c-.693 0-1.254.56-1.254 1.25v5c0 .69.561 1.25 1.254 1.25h27.573c.692 0 1.253-.56 1.253-1.25v-5c0-.69-.56-1.25-1.253-1.25Zm-25.882 10h24.19l-2.08 17.65a1.25 1.25 0 0 1-1.242 1.1H10.027a1.255 1.255 0 0 1-1.241-1.1l-2.08-17.65Zm13.348-26.387v.85l-1.265 1.262-1.241-1.225-7.884-7.888-1.78 1.775L18.25 20h-3.347a14.935 14.935 0 0 1-10.534-4.357A14.855 14.855 0 0 1 0 5.137V1.25A1.248 1.248 0 0 1 1.253 0h3.898a14.925 14.925 0 0 1 10.54 4.35 14.816 14.816 0 0 1 4.361 10.513Z"/>
  <path fill="#4F5C32" d="M37.6 1.25v3.888a14.855 14.855 0 0 1-4.369 10.505A14.934 14.934 0 0 1 22.698 20H19.3L29.716 9.637 27.95 7.862l-7.896 7.85-1.266 1.263-1.24-1.225v-.887a14.816 14.816 0 0 1 4.36-10.513A14.925 14.925 0 0 1 32.448 0h3.9A1.255 1.255 0 0 1 37.6 1.25ZM20.055 20h-2.507v11.25h2.507V20Z"/>
</svg>
