<svg xmlns="http://www.w3.org/2000/svg" width="331" height="204" fill="none" viewBox="0 0 331 204">
  <circle cx="83.955" cy="55.117" r="19.374" fill="#4F5C32"/>
  <circle cx="284" cy="121" r="10" fill="#4F5C32"/>
  <circle cx="201" cy="47" r="31" fill="#4F5C32"/>
  <path fill="#A4B465" d="m154.924 56.072-8.422 31.431-23.009-23.009 31.431-8.422ZM261.638 11.96l56.598 56.599-77.315 20.716 20.717-77.314Z"/>
  <path fill="#FFCF50" d="M118.594 24h19.961v18.787h-19.961zm94.048 63 27.245 27.245-25.643 25.642L187 112.643z"/>
  <path stroke="#000" stroke-width="1.174" d="m109.2 170.187 29.942-25.245"/>
  <path fill="#A4B465" d="M106.849 203.652H21.726a2.348 2.348 0 0 1-2.316-1.963L.455 87.792a2.348 2.348 0 0 1 2.317-2.734h122.457a2.349 2.349 0 0 1 2.319 2.723l-18.381 113.897a2.347 2.347 0 0 1-2.318 1.974Z"/>
  <path stroke="#000" stroke-linejoin="round" stroke-width="1.174" d="m58.123 170.187 29.941-25.245"/>
  <circle cx="87.477" cy="144.355" r="6.458" fill="#000"/>
  <circle cx="139.142" cy="144.355" r="6.458" fill="#000"/>
  <circle cx="84.542" cy="105.02" r="3.523" fill="#000"/>
  <circle cx="104.503" cy="105.02" r="3.523" fill="#000"/>
  <path fill="#000" fill-rule="evenodd" d="M90.413 110.891a5.871 5.871 0 0 0 11.742 0H90.413Z" clip-rule="evenodd"/>
</svg>
